<svg width="103" height="19" viewBox="0 0 103 19" fill="none" xmlns="http://www.w3.org/2000/svg">
<path d="M0.852273 3.58807V0.545454H15.1875V3.58807H9.84375V18H6.19602V3.58807H0.852273ZM16.1207 18V4.90909H19.6406V7.19318H19.777C20.0156 6.38068 20.4162 5.76705 20.9787 5.35227C21.5412 4.93182 22.1889 4.72159 22.9219 4.72159C23.1037 4.72159 23.2997 4.73295 23.5099 4.75568C23.7202 4.77841 23.9048 4.80966 24.0639 4.84943V8.07102C23.8935 8.01989 23.6577 7.97443 23.3565 7.93466C23.0554 7.89489 22.7798 7.875 22.5298 7.875C21.9957 7.875 21.5185 7.99148 21.098 8.22443C20.6832 8.4517 20.3537 8.76989 20.1094 9.17898C19.8707 9.58807 19.7514 10.0597 19.7514 10.5938V18H16.1207ZM29.299 18.2472C28.4638 18.2472 27.7195 18.1023 27.0661 17.8125C26.4126 17.517 25.8956 17.0824 25.5149 16.5085C25.1399 15.929 24.9524 15.2074 24.9524 14.3438C24.9524 13.6165 25.0859 13.0057 25.353 12.5114C25.62 12.017 25.9837 11.6193 26.4439 11.3182C26.9041 11.017 27.4268 10.7898 28.0121 10.6364C28.603 10.483 29.2223 10.375 29.87 10.3125C30.6314 10.233 31.245 10.1591 31.7109 10.0909C32.1768 10.017 32.5149 9.90909 32.7251 9.76705C32.9354 9.625 33.0405 9.41477 33.0405 9.13636V9.08523C33.0405 8.54545 32.87 8.12784 32.5291 7.83239C32.1939 7.53693 31.7166 7.3892 31.0973 7.3892C30.4439 7.3892 29.924 7.53409 29.5376 7.82386C29.1513 8.10795 28.8956 8.46591 28.7706 8.89773L25.4126 8.625C25.5831 7.82955 25.9183 7.14205 26.4183 6.5625C26.9183 5.97727 27.5632 5.52841 28.353 5.21591C29.1484 4.89773 30.0689 4.73864 31.1143 4.73864C31.8416 4.73864 32.5376 4.82386 33.2024 4.99432C33.8729 5.16477 34.4666 5.42898 34.9837 5.78693C35.5064 6.14489 35.9183 6.60511 36.2195 7.16761C36.5206 7.72443 36.6712 8.39205 36.6712 9.17045V18H33.228V16.1847H33.1257C32.9155 16.5938 32.6342 16.9545 32.282 17.267C31.9297 17.5739 31.5064 17.8153 31.0121 17.9915C30.5178 18.1619 29.9467 18.2472 29.299 18.2472ZM30.3388 15.7415C30.8729 15.7415 31.3445 15.6364 31.7536 15.4261C32.1626 15.2102 32.4837 14.9205 32.7166 14.5568C32.9496 14.1932 33.0661 13.7812 33.0661 13.321V11.9318C32.9524 12.0057 32.7962 12.0739 32.5973 12.1364C32.4041 12.1932 32.1854 12.2472 31.9411 12.2983C31.6967 12.3437 31.4524 12.3864 31.2081 12.4261C30.9638 12.4602 30.7422 12.4915 30.5433 12.5199C30.1172 12.5824 29.745 12.6818 29.4268 12.8182C29.1087 12.9545 28.8615 13.1392 28.6854 13.3722C28.5092 13.5994 28.4212 13.8835 28.4212 14.2244C28.4212 14.7188 28.6001 15.0966 28.9581 15.358C29.3217 15.6136 29.782 15.7415 30.3388 15.7415ZM51.2237 4.90909L46.647 18H42.5561L37.9794 4.90909H41.8146L44.5334 14.2756H44.6697L47.38 4.90909H51.2237ZM58.6257 18.2557C57.2791 18.2557 56.12 17.983 55.1484 17.4375C54.1825 16.8864 53.4382 16.108 52.9155 15.1023C52.3928 14.0909 52.1314 12.8949 52.1314 11.5142C52.1314 10.1676 52.3928 8.9858 52.9155 7.96875C53.4382 6.9517 54.174 6.15909 55.1229 5.59091C56.0774 5.02273 57.1967 4.73864 58.4808 4.73864C59.3445 4.73864 60.1484 4.87784 60.8928 5.15625C61.6428 5.42898 62.2962 5.84091 62.853 6.39205C63.4155 6.94318 63.853 7.63636 64.1655 8.47159C64.478 9.30114 64.6342 10.2727 64.6342 11.3864V12.3835H53.5803V10.1335H61.2166C61.2166 9.6108 61.103 9.14773 60.8757 8.74432C60.6484 8.34091 60.3331 8.02557 59.9297 7.7983C59.532 7.56534 59.0689 7.44886 58.5405 7.44886C57.9893 7.44886 57.5007 7.5767 57.0746 7.83239C56.6541 8.08239 56.3246 8.42045 56.0859 8.84659C55.8473 9.26705 55.7251 9.7358 55.7195 10.2528V12.392C55.7195 13.0398 55.8388 13.5994 56.0774 14.071C56.3217 14.5426 56.6655 14.9062 57.1087 15.1619C57.5518 15.4176 58.0774 15.5455 58.6854 15.5455C59.0888 15.5455 59.4581 15.4886 59.7933 15.375C60.1286 15.2614 60.4155 15.0909 60.6541 14.8636C60.8928 14.6364 61.0746 14.358 61.1996 14.0284L64.5575 14.25C64.3871 15.0568 64.0376 15.7614 63.5092 16.3636C62.9865 16.9602 62.3104 17.4261 61.4808 17.7614C60.657 18.0909 59.7053 18.2557 58.6257 18.2557ZM70.6342 0.545454V18H67.0036V0.545454H70.6342ZM75.6648 18.2216C75.1023 18.2216 74.6193 18.0227 74.2159 17.625C73.8182 17.2216 73.6193 16.7386 73.6193 16.1761C73.6193 15.6193 73.8182 15.142 74.2159 14.7443C74.6193 14.3466 75.1023 14.1477 75.6648 14.1477C76.2102 14.1477 76.6875 14.3466 77.0966 14.7443C77.5057 15.142 77.7102 15.6193 77.7102 16.1761C77.7102 16.5511 77.6136 16.8949 77.4205 17.2074C77.233 17.5142 76.9858 17.7614 76.679 17.9489C76.3722 18.1307 76.0341 18.2216 75.6648 18.2216ZM80.6911 18V4.90909H84.2109V7.19318H84.3473C84.5859 6.38068 84.9865 5.76705 85.549 5.35227C86.1115 4.93182 86.7592 4.72159 87.4922 4.72159C87.674 4.72159 87.87 4.73295 88.0803 4.75568C88.2905 4.77841 88.4751 4.80966 88.6342 4.84943V8.07102C88.4638 8.01989 88.228 7.97443 87.9268 7.93466C87.6257 7.89489 87.3501 7.875 87.1001 7.875C86.5661 7.875 86.0888 7.99148 85.6683 8.22443C85.2536 8.4517 84.924 8.76989 84.6797 9.17898C84.4411 9.58807 84.3217 10.0597 84.3217 10.5938V18H80.6911ZM98.9062 12.4261V4.90909H102.537V18H99.0511V15.6222H98.9148C98.6193 16.3892 98.1278 17.0057 97.4403 17.4716C96.7585 17.9375 95.9261 18.1705 94.9432 18.1705C94.0682 18.1705 93.2983 17.9716 92.6335 17.5739C91.9688 17.1761 91.4489 16.6108 91.0739 15.8778C90.7045 15.1449 90.517 14.267 90.5114 13.2443V4.90909H94.142V12.5966C94.1477 13.3693 94.3551 13.9801 94.7642 14.429C95.1733 14.8778 95.7216 15.1023 96.4091 15.1023C96.8466 15.1023 97.2557 15.0028 97.6364 14.804C98.017 14.5994 98.3239 14.2983 98.5568 13.9006C98.7955 13.5028 98.9119 13.0114 98.9062 12.4261Z" fill="#35AFF4"/>
</svg>
