<svg width="17" height="17" viewBox="0 0 17 17" fill="none" xmlns="http://www.w3.org/2000/svg">
<path id="Vector" d="M7.68356 0.836571C7.97473 0.145621 8.96643 0.145622 9.2576 0.836573L10.9761 4.91468C11.0989 5.20597 11.3765 5.405 11.695 5.43021L16.1557 5.78317C16.9114 5.84297 17.2179 6.77387 16.642 7.2607L13.2436 10.134C13.0008 10.3393 12.8948 10.6614 12.9689 10.9682L14.0072 15.2644C14.1831 15.9923 13.3809 16.5677 12.7338 16.1777L8.91489 13.8753C8.64211 13.7109 8.29905 13.7109 8.02628 13.8753L4.20733 16.1777C3.56028 16.5677 2.75798 15.9923 2.9339 15.2644L3.97221 10.9682C4.04638 10.6614 3.94036 10.3393 3.69762 10.134L0.299064 7.2607C-0.276749 6.77387 0.0297045 5.84297 0.785469 5.78317L5.24613 5.43021C5.56475 5.405 5.84229 5.20597 5.96504 4.91468L7.68356 0.836571Z" fill="#F9B811"/>
</svg>
